<svg data-encore-id="icon" role="presentation" aria-label="Volumen apagado" aria-hidden="true" id="volume-icon"
  viewBox="0 0 16 16" class="Svg-sc-ytk21e-0 kcUFwU">
  <path
    d="M13.86 5.47a.75.75 0 0 0-1.061 0l-1.47 1.47-1.47-1.47A.75.75 0 0 0 8.8 6.53L10.269 8l-1.47 1.47a.75.75 0 1 0 1.06 1.06l1.47-1.47 1.47 1.47a.75.75 0 0 0 1.06-1.06L12.39 8l1.47-1.47a.75.75 0 0 0 0-1.06z">
  </path>
  <path
    d="M10.116 1.5A.75.75 0 0 0 8.991.85l-6.925 4a3.642 3.642 0 0 0-1.33 4.967 3.639 3.639 0 0 0 1.33 1.332l6.925 4a.75.75 0 0 0 1.125-.649v-1.906a4.73 4.73 0 0 1-1.5-.694v1.3L2.817 9.852a2.141 2.141 0 0 1-.781-2.92c.187-.324.456-.594.78-.782l5.8-3.35v1.3c.45-.313.956-.55 1.5-.694V1.5z">
  </path>
</svg>
