<svg xmlns="http://www.w3.org/2000/svg" width="32" height="32" viewBox="0 0 15 15">
  <path fill="currentColor"
    d="m3.5 10.494l.257-.429l-.119-.07H3.5zm0-5.996v.5h.138l.12-.071zm5-2.998H9a.5.5 0 0 0-.757-.429zm0 11.992l-.257.429A.5.5 0 0 0 9 13.492zm-5-3.498h-2v1h2zm-2 0a.5.5 0 0 1-.5-.5H0c0 .83.672 1.5 1.5 1.5zm-.5-.5V5.498H0v3.998zm0-3.997a.5.5 0 0 1 .5-.499v-1a1.5 1.5 0 0 0-1.5 1.5zm.5-.499h2v-1h-2zm2.257-.071l5-2.998l-.514-.858l-5 2.998zM8 1.5v11.992h1V1.5zm.757 11.563l-5-2.998l-.514.858l5 2.998zM10 6v3h1V6zm2-2v7h1V4zm2-2v11h1V2z" />
</svg>
