<svg xmlns="http://www.w3.org/2000/svg" width="32" height="32" viewBox="0 0 15 15">
  <path fill="currentColor"
    d="m3.5 10.494l.257-.429l-.119-.07H3.5zm0-5.996v.5h.138l.12-.071zm5-2.998H9a.5.5 0 0 0-.757-.429zm0 11.992l-.257.429A.5.5 0 0 0 9 13.492zm2.94-7.763l-.354-.353l-.707.707l.354.354zm2.12 3.534l.354.353l.707-.707l-.354-.353zm.708-2.826l.353-.354l-.707-.707l-.353.353zm-3.535 2.119l-.354.353l.707.707l.354-.353zM3.5 9.994h-2v1h2zm-2 0a.499.499 0 0 1-.5-.5H0c0 .83.671 1.5 1.5 1.5zm-.5-.5V5.498H0v3.998zm0-3.997c0-.276.223-.499.5-.499v-1c-.829 0-1.5.67-1.5 1.5zm.5-.499h2v-1h-2zm2.257-.071l5-2.998l-.514-.858l-5 2.998zM8 1.5v11.992h1V1.5zm.757 11.563l-5-2.998l-.514.858l5 2.998zm1.976-6.626l2.827 2.826l.707-.707l-2.828-2.827zm2.828-.708l-2.828 2.827l.707.707l2.828-2.826z" />
</svg>
